<?xml version="1.0" standalone="no"?>
<!DOCTYPE svg PUBLIC "-//W3C//DTD SVG 20010904//EN"
 "http://www.w3.org/TR/2001/REC-SVG-20010904/DTD/svg10.dtd">
<svg version="1.0" xmlns="http://www.w3.org/2000/svg"
 width="2364.000000pt" height="2363.000000pt" viewBox="0 0 2364.000000 2363.000000"
 preserveAspectRatio="xMidYMid meet">

<g transform="translate(0.000000,2363.000000) scale(0.100000,-0.100000)"
fill="#ffffff" stroke="none">
<path d="M11260 21884 c-1085 -61 -2052 -291 -2968 -705 -1469 -665 -2713
-1779 -3550 -3182 -1104 -1847 -1429 -4029 -907 -6082 205 -808 612 -1741
1243 -2850 1598 -2811 4286 -6064 6197 -7502 195 -147 374 -265 391 -259 41
16 375 258 579 421 1481 1179 3405 3383 4941 5660 1111 1649 1905 3177 2224
4285 470 1631 405 3345 -187 4958 -594 1621 -1700 3020 -3128 3958 -582 382
-1163 663 -1825 885 -628 210 -1246 336 -1940 395 -174 15 -907 27 -1070 18z
m-1570 -3234 c457 -58 908 -249 1270 -538 256 -205 484 -483 640 -784 l56
-106 52 103 c106 208 273 435 447 610 384 384 884 631 1440 711 145 21 474 24
615 6 292 -39 554 -118 818 -247 94 -47 172 -88 172 -92 -1 -12 -3502 -2337
-3519 -2337 -22 0 -3481 2376 -3474 2387 8 12 170 91 270 130 211 84 470 145
698 166 117 11 393 6 515 -9z m-1088 -2698 c860 -571 1563 -1042 1563 -1047 0
-12 -2128 -1424 -2137 -1418 -19 11 -264 346 -370 507 -453 685 -691 1302
-749 1940 -15 159 -6 481 16 626 24 155 93 430 109 430 2 0 708 -467 1568
-1038z m7741 831 c15 -65 34 -161 43 -213 21 -128 30 -501 15 -655 -62 -638
-315 -1280 -774 -1962 -72 -106 -209 -300 -242 -341 -4 -5 -1989 1305 -1992
1314 -3 10 2895 1973 2913 1974 6 0 23 -53 37 -117z m-3371 -3709 c645 -421
1174 -767 1176 -769 9 -9 -364 -336 -763 -668 -594 -496 -1719 -1382 -1738
-1370 -7 4 -165 126 -352 272 -733 571 -1409 1121 -1819 1480 -159 139 -186
167 -172 176 9 5 569 377 1244 827 675 449 1232 817 1239 817 7 1 540 -344
1185 -765z"/>
</g>
</svg>
